<?xml version="1.0" encoding="iso-8859-1"?>
<!-- Generator: Adobe Illustrator 22.0.1, SVG Export Plug-In . SVG Version: 6.00 Build 0)  -->
<svg xmlns="http://www.w3.org/2000/svg" xmlns:xlink="http://www.w3.org/1999/xlink" version="1.1" id="Layer_1" x="0px" y="0px" viewBox="0 0 48 48" style="enable-background:new 0 0 48 48;" xml:space="preserve" width="96px" height="96px">
<polygon style="fill:#BDBDBD;" points="23.933,2 3,9.285 6.308,36.408 23.955,46 41.693,36.278 45,9.156 "/>
<polygon style="fill:#B71C1C;" points="42.818,10.527 24,4.135 24,43.695 39.832,35.017 "/>
<polygon style="fill:#DD2C00;" points="23.941,4.115 5.181,10.644 8.168,35.143 23.951,43.721 24,43.695 24,4.135 "/>
<polygon style="fill:#BDBDBD;" points="24,5.996 24,15.504 32.578,34 36.987,34 "/>
<polygon style="fill:#EEEEEE;" points="11.013,34 15.422,34 24,15.504 24,5.996 "/>
<rect x="24" y="24" style="fill:#BDBDBD;" width="6" height="4"/>
<rect x="18" y="24" style="fill:#EEEEEE;" width="6" height="4"/>
</svg>
